<svg xmlns="http://www.w3.org/2000/svg" width="200" height="200" version="1.1"><rect width="200" height="200" x="0" y="0" fill="#9c0042"/><polygon fill="#ffe38c" points="0 0 65 0 45 80 0 80"/><polygon fill="#ffe38c" points="0 45 30 139 15 200 0 200"/><polygon fill="#ffae63" points="65 0 110 0 90 80 45 80"/><polygon fill="#f76d42" points="110 0 155 0 135 80 90 80"/><polygon fill="#d63c4a" points="155 0 200 0 180 80 135 80"/><polygon fill="#ffae63" points="0 80 45 80 75 139 60 200 15 200 30 139"/><polygon fill="#f76d42" points="45 80 90 80 120 139 105 200 60 200 75 139"/><polygon fill="#d63c4a" points="90 80 135 80 165 139 150 200 105 200 120 139"/></svg>