<svg xmlns="http://www.w3.org/2000/svg" viewBox="0 0 529 529"><defs><linearGradient id="a" x1="50%" x2="50%" y1="0%" y2="100%"><stop offset="0%" stop-color="#FFD4DE"/><stop offset="100%" stop-color="#D0021B"/></linearGradient><linearGradient id="b" x1="50%" x2="50%" y1="0%" y2="100%"><stop offset="0%" stop-color="#00375E"/><stop offset="100%" stop-color="#9ECAFD"/></linearGradient><linearGradient id="c" x1="50%" x2="50%" y1="0%" y2="100%"><stop offset="0%" stop-color="#B4EC51"/><stop offset="100%" stop-color="#429321"/></linearGradient></defs><g fill="none" fill-rule="nonzero"><path fill="url(#a)" d="m360.461 392.4-28.695-28.547C362.137 342.61 382 307.375 382 267.5c0-25.22-7.945-48.583-21.469-67.724l-95.877 95.878-15.448-15.448-.142.142-80.586-80.585C154.948 218.906 147 242.275 147 267.5c0 39.875 19.863 75.11 50.234 96.353L168.539 392.4C131.116 363.606 107 318.369 107 267.5c0-50.63 23.89-95.68 61.012-124.493l54.42 54.142 42.08 42.078 46.522-46.522 49.954-49.698C398.11 171.82 422 216.87 422 267.5c0 50.87-24.116 96.106-61.539 124.9z"/><path fill="url(#b)" d="M264.5 472C149.9 472 57 379.1 57 264.5S149.9 57 264.5 57 472 149.9 472 264.5 379.1 472 264.5 472zm-1-36c93.612 0 169.5-75.888 169.5-169.5S357.112 97 263.5 97 94 172.888 94 266.5 169.888 436 263.5 436z"/><circle cx="319" cy="142" r="20" fill="url(#c)"/></g></svg>